<svg xmlns="http://www.w3.org/2000/svg" version="1.0" width="16" height="30"><path d="M9 14V0l7 7-7 7z"/><path d="M9 6v2H6a4 4 0 0 0-4 4 4.01 4.01 0 0 0 1.156 2.844l1.656 1.844 1.063-.813A2.996 2.996 0 0 1 8 15a3 3 0 0 1 0 6 2.996 2.996 0 0 1-2.125-.875L4.75 19.062l-1.875 1.813A2.996 2.996 0 0 0 2 23a3 3 0 0 0 3 3h8v4H7a7 7 0 0 1-7-7c0-1.403.451-2.475 1.313-3.281l2.062-1.938L1.75 16.25A5.985 5.985 0 0 1 0 12a6 6 0 0 1 6-6h3zM8 16.5c-.414 0-.791.166-1.063.438l-1.03 1 1.03 1.125c.272.27.649.437 1.063.437a1.5 1.5 0 0 0 0-3z"/></svg>