<svg xmlns="http://www.w3.org/2000/svg" version="1.0" width="38" height="51"><path d="M12 0v14L5 7l7-7z"/><path d="M12 5v1h14a7 7 0 0 1 7 7v2a7 7 0 0 1-7 7H12a5 5 0 0 0-5 5v2a5 5 0 0 0 5 5h14a7 7 0 0 1 7 7v2a7 7 0 0 1-7 7H8v1h18a8 8 0 0 0 8-8v-2a8 8 0 0 0-8-8H12a4 4 0 0 1-4-4v-2a4 4 0 0 1 4-4h14a8 8 0 0 0 8-8v-2a8 8 0 0 0-8-8H12z"/><path d="M12 6v2h14a5 5 0 0 1 5 5v2a5 5 0 0 1-5 5H12a7 7 0 0 0-7 7v2a7 7 0 0 0 7 7h14a5 5 0 0 1 5 5v2a5 5 0 0 1-5 5H8v2h18a7 7 0 0 0 7-7v-2a7 7 0 0 0-7-7H12a5 5 0 0 1-5-5v-2a5 5 0 0 1 5-5h14a7 7 0 0 0 7-7v-2a7 7 0 0 0-7-7H12z" fill="#fff"/><path d="M12 8v1h14a4 4 0 0 1 4 4v2a4 4 0 0 1-4 4H12a8 8 0 0 0-8 8v2a8 8 0 0 0 8 8h14a4 4 0 0 1 4 4v2a4 4 0 0 1-4 4H8v1h18a5 5 0 0 0 5-5v-2a5 5 0 0 0-5-5H12a7 7 0 0 1-7-7v-2a7 7 0 0 1 7-7h14a5 5 0 0 0 5-5v-2a5 5 0 0 0-5-5H12z"/><path d="M0 27v2h12v-2H0zM26 13v2h12v-2H26zM26 41v2h12v-2H26z"/></svg>