<svg xmlns="http://www.w3.org/2000/svg" version="1.0" width="39" height="43"><path d="M8 0L0 8h16L8 0zm0 1.438L13.594 7H2.406L8 1.437zM7 8v11.5a3.5 3.5 0 0 0 3.5 3.5 3.48 3.48 0 0 0 2.469-1.031L15 19.937V29.5a3.5 3.5 0 0 0 3.5 3.5 3.48 3.48 0 0 0 2.469-1.031L23 29.937V39a4 4 0 0 0 4 4h4a8 8 0 0 0 8-8H29v3c0 1.657-.895 3-2 3a2 2 0 0 1-2-2V25.094l-5.438 5.468A1.498 1.498 0 0 1 18.5 31a1.5 1.5 0 0 1-1.5-1.5V15.094l-5.438 5.469A1.498 1.498 0 0 1 10.5 21 1.5 1.5 0 0 1 9 19.5V8H7z"/><path d="M8 1.438L2.406 7h11.188L8 1.437z" fill="#fff"/></svg>