<svg xmlns="http://www.w3.org/2000/svg" version="1.0" width="18" height="43"><path d="M0 0v12L12 0H0zm1 1h8.563L1 9.563V1z"/><path d="M4.594 7.406L3.187 8.813l6.22 6.25c.361.361.593.853.593 1.406 0 .552-.232 1.044-.594 1.406l-5.469 5.469a9.956 9.956 0 0 0 0 14.125L9.47 43l1.406-1.406-5.531-5.532A7.974 7.974 0 0 1 3 30.407c0-2.209.896-4.208 2.344-5.656l5.5-5.438A4.01 4.01 0 0 0 12 16.47a4.01 4.01 0 0 0-1.156-2.844l-6.25-6.219z"/><path d="M7.438 4.563L4.594 7.405l6.25 6.219A4.01 4.01 0 0 1 12 16.469a4.01 4.01 0 0 1-1.156 2.843l-5.5 5.438A7.974 7.974 0 0 0 3 30.406c0 2.21.896 4.209 2.344 5.657l5.531 5.53 2.844-2.843-5.563-5.5A4.01 4.01 0 0 1 7 30.406a4.01 4.01 0 0 1 1.156-2.843l5.5-5.438A7.974 7.974 0 0 0 16 16.469c0-2.21-.896-4.209-2.344-5.657l-6.219-6.25z" fill="#fff"/><path d="M8.813 3.188L7.437 4.562l6.22 6.25A7.974 7.974 0 0 1 16 16.47c0 2.209-.896 4.208-2.344 5.656l-5.5 5.438A4.01 4.01 0 0 0 7 30.405a4.01 4.01 0 0 0 1.156 2.844l5.563 5.5 1.406-1.406-5.531-5.532A1.982 1.982 0 0 1 9 30.407c0-.552.232-1.044.594-1.406l5.469-5.469a9.956 9.956 0 0 0 0-14.125l-6.25-6.219z"/><path d="M1 1v8.563L9.563 1H1z" fill="#fff"/></svg>