<svg xmlns="http://www.w3.org/2000/svg" version="1.0" width="22" height="22"><path d="M6 10a6 6 0 1 0 0 12 6 6 0 0 0 0-12zm0 2a4 4 0 1 1 0 8 4 4 0 0 1 0-8z"/><path d="M6 12a4 4 0 1 0 0 8 4 4 0 0 0 0-8zm0 2a2 2 0 1 1 0 4 2 2 0 0 1 0-4z" fill="#fff"/><path d="M6 14a2 2 0 1 0 0 4 2 2 0 0 0 0-4zM16 0a6 6 0 1 0 0 12 6 6 0 0 0 0-12zm0 2a4 4 0 1 1 0 8 4 4 0 0 1 0-8z"/><path d="M16 2a4 4 0 1 0 0 8 4 4 0 0 0 0-8zm0 2a2 2 0 1 1 0 4 2 2 0 0 1 0-4z" fill="#fff"/><path d="M16 4a2 2 0 1 0 0 4 2 2 0 0 0 0-4z"/></svg>