<svg xmlns="http://www.w3.org/2000/svg" version="1.0" width="40" height="12"><path d="M6 0a6 6 0 1 0 0 12A6 6 0 0 0 6 0zm0 2a4 4 0 1 1 0 8 4 4 0 0 1 0-8z"/><path d="M6 2a4 4 0 1 0 0 8 4 4 0 0 0 0-8zm0 2a2 2 0 1 1 0 4 2 2 0 0 1 0-4z" fill="#fff"/><path d="M6 4a2 2 0 1 0 0 4 2 2 0 0 0 0-4zM20 0a6 6 0 1 0 0 12 6 6 0 0 0 0-12zm0 2a4 4 0 1 1 0 8 4 4 0 0 1 0-8z"/><path d="M20 2a4 4 0 1 0 0 8 4 4 0 0 0 0-8zm0 2a2 2 0 1 1 0 4 2 2 0 0 1 0-4z" fill="#fff"/><path d="M20 4a2 2 0 1 0 0 4 2 2 0 0 0 0-4zM34 0a6 6 0 1 0 0 12 6 6 0 0 0 0-12zm0 2a4 4 0 1 1 0 8 4 4 0 0 1 0-8z"/><path d="M34 2a4 4 0 1 0 0 8 4 4 0 0 0 0-8zm0 2a2 2 0 1 1 0 4 2 2 0 0 1 0-4z" fill="#fff"/><path d="M34 4a2 2 0 1 0 0 4 2 2 0 0 0 0-4z"/></svg>