<svg xmlns="http://www.w3.org/2000/svg" version="1.0" width="19" height="47"><path d="M17 0v12L5 0h12zm-1 1H7.437L16 9.594V1z"/><path d="M8.531 3.531l1.063 1.063L5 9.094a11.984 11.984 0 0 0-3.5 8.5v1.843c0 3.314 1.328 6.329 3.5 8.5l.563.5A6.96 6.96 0 0 0 10.5 30.5 7 7 0 1 0 7 17.437c.015-.616.106-1.219.281-1.78A8.4 8.4 0 0 1 10.5 15a8.5 8.5 0 0 1 0 17 8.458 8.458 0 0 1-6-2.5l-.531-.531a13.66 13.66 0 0 1-2.344-3.094c-.078.556-.125 1.11-.125 1.688v1.843c0 3.314 1.328 6.329 3.5 8.5l8.125 8.032L12.062 47 3.97 38.937C1.526 36.495 0 33.135 0 29.407v-1.845c0-1.422.246-2.777.656-4.062A13.294 13.294 0 0 1 0 19.437v-1.843c0-3.728 1.526-7.088 3.969-9.532l4.562-4.53z"/><path d="M9.594 4.594l2.812 2.812-4.562 4.532A7.974 7.974 0 0 0 5.5 17.593v1.843c0 2.21.896 4.209 2.344 5.657l.531.531a2.996 2.996 0 0 0 2.125.875 3 3 0 0 0 0-6c-.828 0-1.582.332-2.125.875l-.531.531c-.09.09-.166.188-.25.282A6.462 6.462 0 0 1 7 19.438v-1.844-.157A7 7 0 1 1 10.5 30.5a6.96 6.96 0 0 1-4.938-2.063l-.562-.5a11.984 11.984 0 0 1-3.5-8.5v-1.843c0-3.314 1.328-6.329 3.5-8.5l4.594-4.5zM1.625 25.875a13.66 13.66 0 0 0 2.344 3.094l.531.531c.33.33.682.633 1.063.906a7.987 7.987 0 0 0 2.28 4.657l8.095 8.062-2.813 2.813L5 37.906a11.984 11.984 0 0 1-3.5-8.5v-1.843c0-.578.047-1.132.125-1.688z" fill="#fff"/><path d="M12.406 7.406L13.47 8.47 8.906 13A6.476 6.476 0 0 0 7 17.594v1.843c0 .983.203 1.916.594 2.75.084-.093.16-.191.25-.28l.531-.532A2.996 2.996 0 0 1 10.5 20.5a3 3 0 0 1 0 6 2.996 2.996 0 0 1-2.125-.875l-.531-.531A7.974 7.974 0 0 1 5.5 19.437v-1.843c0-2.21.896-4.209 2.344-5.657l4.562-4.53zM10.5 22c-.414 0-.791.166-1.063.438l-.53.53a6.707 6.707 0 0 0-.47.532c.15.185.302.364.47.531l.53.532c.272.27.649.437 1.063.437a1.5 1.5 0 0 0 0-3zm-4.938 8.406c.53.381 1.108.685 1.72.938A6.513 6.513 0 0 0 8.905 34L17 42.063l-1.063 1.062-8.093-8.063a7.987 7.987 0 0 1-2.282-4.656z"/><path d="M16 1v8.594L7.437 1H16z" fill="#fff"/><path d="M4.5 8.5a4.5 4.5 0 1 1 0 9 4.5 4.5 0 0 1 0-9zM4.5 29.5a4.5 4.5 0 1 1 0 9 4.5 4.5 0 0 1 0-9z"/></svg>