<svg xmlns="http://www.w3.org/2000/svg" version="1.0" width="38" height="15"><path d="M10 1a6 6 0 1 0 0 12 6 6 0 0 0 0-12zm0 2a4 4 0 1 1 0 8 4 4 0 0 1 0-8z"/><path d="M10 3a4 4 0 1 0 0 8 4 4 0 0 0 0-8zm0 2a2 2 0 1 1 0 4 2 2 0 0 1 0-4z" fill="#fff"/><path d="M10 5a2 2 0 1 0 0 4 2 2 0 0 0 0-4zM0 0v15h2V0H0zM18 0v15h2V0h-2zM28 1a6 6 0 1 0 0 12 6 6 0 0 0 0-12zm0 2a4 4 0 1 1 0 8 4 4 0 0 1 0-8z"/><path d="M28 3a4 4 0 1 0 0 8 4 4 0 0 0 0-8zm0 2a2 2 0 1 1 0 4 2 2 0 0 1 0-4z" fill="#fff"/><path d="M28 5a2 2 0 1 0 0 4 2 2 0 0 0 0-4zM36 0v15h2V0h-2z"/></svg>