<svg xmlns="http://www.w3.org/2000/svg" version="1.0" width="20" height="37"><path d="M13 37V25l6 6-6 6z"/><path d="M13 33v-1H8a5 5 0 0 1-5-5v-2a5 5 0 0 1 5-5h4a3 3 0 0 0 3-3v-1a3 3 0 0 0-3-3H8a5 5 0 0 1-5-5V6a5 5 0 0 1 5-5h8V0H8a6 6 0 0 0-6 6v2a6 6 0 0 0 6 6h4a2 2 0 0 1 2 2v1a2 2 0 0 1-2 2H8a6 6 0 0 0-6 6v2a6 6 0 0 0 6 6h5z"/><path d="M13 32v-2H8a3 3 0 0 1-3-3v-2a3 3 0 0 1 3-3h4a5 5 0 0 0 5-5v-1a5 5 0 0 0-5-5H8a3 3 0 0 1-3-3V6a3 3 0 0 1 3-3h8V1H8a5 5 0 0 0-5 5v2a5 5 0 0 0 5 5h4a3 3 0 0 1 3 3v1a3 3 0 0 1-3 3H8a5 5 0 0 0-5 5v2a5 5 0 0 0 5 5h5z" fill="#fff"/><path d="M13 30v-1H8a2 2 0 0 1-2-2v-2a2 2 0 0 1 2-2h4a6 6 0 0 0 6-6v-1a6 6 0 0 0-6-6H8a2 2 0 0 1-2-2V6a2 2 0 0 1 2-2h8V3H8a3 3 0 0 0-3 3v2a3 3 0 0 0 3 3h4a5 5 0 0 1 5 5v1a5 5 0 0 1-5 5H8a3 3 0 0 0-3 3v2a3 3 0 0 0 3 3h5z"/><path d="M4 3a4 4 0 1 1 0 8 4 4 0 0 1 0-8zM4 22a4 4 0 1 1 0 8 4 4 0 0 1 0-8zM16 12.5a4 4 0 1 1 0 8 4 4 0 0 1 0-8z"/></svg>