<svg xmlns="http://www.w3.org/2000/svg" version="1.0" width="25" height="25"><path d="M7 0a7 7 0 0 0 0 14c2.31 0 4.407-.882 6-2.313l-1.344-1.5C10.416 11.305 8.8 12 7 12A5 5 0 1 1 7 2a3 3 0 0 1 0 6 1 1 0 1 1 0-2h1V4H7a3 3 0 0 0 0 6A5 5 0 1 0 7 0z"/><path d="M7 2a5 5 0 1 0 0 10c1.8 0 3.416-.696 4.656-1.813L10.312 8.72A4.947 4.947 0 0 1 7 10a3 3 0 0 1 0-6h1v2H7a1 1 0 1 0 0 2 3 3 0 0 0 0-6z" fill="#fff"/><path d="M19 11a7 7 0 0 0 0 14c2.31 0 4.407-.882 6-2.313l-1.344-1.5C22.416 22.305 20.8 23 19 23a5 5 0 1 1 0-10 3 3 0 0 1 0 6 1 1 0 1 1 0-2h1v-2h-1a3 3 0 0 0 0 6 5 5 0 1 0 0-10z"/><path d="M19 13a5 5 0 1 0 0 10c1.8 0 3.416-.696 4.656-1.813l-1.343-1.468A4.947 4.947 0 0 1 19 21a3 3 0 0 1 0-6h1v2h-1a1 1 0 1 0 0 2 3 3 0 0 0 0-6z" fill="#fff"/></svg>