<svg xmlns="http://www.w3.org/2000/svg" version="1.0" width="24" height="51"><path d="M8 51l-7-7 7-7v2l-5 5 5 5v2z"/><path d="M8 46v-1h6a7 7 0 0 0 7-7v-2a7 7 0 0 0-7-7h-4a5 5 0 0 1-5-5v-2a5 5 0 0 1 5-5h4a7 7 0 0 0 7-7V8a7 7 0 0 0-7-7H4V0h10a8 8 0 0 1 8 8v2a8 8 0 0 1-8 8h-4a4 4 0 0 0-4 4v2a4 4 0 0 0 4 4h4a8 8 0 0 1 8 8v2a8 8 0 0 1-8 8H8z"/><path d="M8 45v-2h6a5 5 0 0 0 5-5v-2a5 5 0 0 0-5-5h-4a7 7 0 0 1-7-7v-2a7 7 0 0 1 7-7h4a5 5 0 0 0 5-5V8a5 5 0 0 0-5-5H4V1h10a7 7 0 0 1 7 7v2a7 7 0 0 1-7 7h-4a5 5 0 0 0-5 5v2a5 5 0 0 0 5 5h4a7 7 0 0 1 7 7v2a7 7 0 0 1-7 7H8z" fill="#fff"/><path d="M8 43v-1h6a4 4 0 0 0 4-4v-2a4 4 0 0 0-4-4h-4a8 8 0 0 1-8-8v-2a8 8 0 0 1 8-8h4a4 4 0 0 0 4-4V8a4 4 0 0 0-4-4H4V3h10a5 5 0 0 1 5 5v2a5 5 0 0 1-5 5h-4a7 7 0 0 0-7 7v2a7 7 0 0 0 7 7h4a5 5 0 0 1 5 5v2a5 5 0 0 1-5 5H8z"/><path d="M4 19a4 4 0 1 0 0 8 4 4 0 0 0 0-8zM20 33a4 4 0 1 0 0 8 4 4 0 0 0 0-8zM20 5a4 4 0 1 0 0 8 4 4 0 0 0 0-8z"/></svg>