<svg xmlns="http://www.w3.org/2000/svg" version="1.0" width="22" height="37"><path d="M8 0L2 6l6 6v-2L4 6l4-4V0z"/><path d="M8 4v1h5a5 5 0 0 1 5 5v2a5 5 0 0 1-5 5H9a3 3 0 0 0-3 3v1a3 3 0 0 0 3 3h4a5 5 0 0 1 5 5v2a5 5 0 0 1-5 5H5v1h8a6 6 0 0 0 6-6v-2a6 6 0 0 0-6-6H9a2 2 0 0 1-2-2v-1a2 2 0 0 1 2-2h4a6 6 0 0 0 6-6v-2a6 6 0 0 0-6-6H8z"/><path d="M8 5v2h5a3 3 0 0 1 3 3v2a3 3 0 0 1-3 3H9a5 5 0 0 0-5 5v1a5 5 0 0 0 5 5h4a3 3 0 0 1 3 3v2a3 3 0 0 1-3 3H5v2h8a5 5 0 0 0 5-5v-2a5 5 0 0 0-5-5H9a3 3 0 0 1-3-3v-1a3 3 0 0 1 3-3h4a5 5 0 0 0 5-5v-2a5 5 0 0 0-5-5H8z" fill="#fff"/><path d="M8 7v1h5a2 2 0 0 1 2 2v2a2 2 0 0 1-2 2H9a6 6 0 0 0-6 6v1a6 6 0 0 0 6 6h4a2 2 0 0 1 2 2v2a2 2 0 0 1-2 2H5v1h8a3 3 0 0 0 3-3v-2a3 3 0 0 0-3-3H9a5 5 0 0 1-5-5v-1a5 5 0 0 1 5-5h4a3 3 0 0 0 3-3v-2a3 3 0 0 0-3-3H8z"/><path d="M12 29v2h10v-2H12zM12 10v2h10v-2H12zM0 20v2h10v-2H0z"/></svg>