<svg xmlns="http://www.w3.org/2000/svg" version="1.0" width="23" height="16"><path d="M7 8l-7 7V8h7zM4.594 9H1v3.563L4.594 9z"/><path d="M11.5 16a9.956 9.956 0 0 1-7.063-2.938l-1.312-1.187.75-.75 1.25 1.25A8.988 8.988 0 0 0 11.5 15a8.988 8.988 0 0 0 6.375-2.625L22.281 8l.719.719-4.438 4.344A9.956 9.956 0 0 1 11.5 16z"/><path d="M4.594 9L1 12.563V9h3.594z" fill="#fff"/><path d="M16 0l7 7V0h-7zm2.406 1H22v3.563L18.406 1z"/><path d="M11.5 8a9.956 9.956 0 0 0 7.063-2.938l1.312-1.187-.75-.75-1.25 1.25A8.988 8.988 0 0 1 11.5 7a8.988 8.988 0 0 1-6.375-2.625L.719 0 0 .719l4.438 4.343A9.956 9.956 0 0 0 11.5 8z"/><path d="M18.406 1L22 4.563V1h-3.594z" fill="#fff"/></svg>