<svg xmlns="http://www.w3.org/2000/svg" version="1.0" width="17" height="37"><path d="M6 0L0 6l6 6V0zM5 2.406v7.188L1.437 6 5 2.406z"/><path d="M6 4v1h5a5 5 0 0 1 5 5v2a5 5 0 0 1-5 5H7a3 3 0 0 0-3 3v1a3 3 0 0 0 3 3h4a5 5 0 0 1 5 5v2a5 5 0 0 1-5 5H3v1h8a6 6 0 0 0 6-6v-2a6 6 0 0 0-6-6H7a2 2 0 0 1-2-2v-1a2 2 0 0 1 2-2h4a6 6 0 0 0 6-6v-2a6 6 0 0 0-6-6H6z"/><path d="M6 5v2h5a3 3 0 0 1 3 3v2a3 3 0 0 1-3 3H7a5 5 0 0 0-5 5v1a5 5 0 0 0 5 5h4a3 3 0 0 1 3 3v2a3 3 0 0 1-3 3H3v2h8a5 5 0 0 0 5-5v-2a5 5 0 0 0-5-5H7a3 3 0 0 1-3-3v-1a3 3 0 0 1 3-3h4a5 5 0 0 0 5-5v-2a5 5 0 0 0-5-5H6z" fill="#fff"/><path d="M6 7v1h5a2 2 0 0 1 2 2v2a2 2 0 0 1-2 2H7a6 6 0 0 0-6 6v1a6 6 0 0 0 6 6h4a2 2 0 0 1 2 2v2a2 2 0 0 1-2 2H3v1h8a3 3 0 0 0 3-3v-2a3 3 0 0 0-3-3H7a5 5 0 0 1-5-5v-1a5 5 0 0 1 5-5h4a3 3 0 0 0 3-3v-2a3 3 0 0 0-3-3H6z"/><path d="M5 2.406L1.437 6 5 9.594V2.406z" fill="#fff"/></svg>