<svg xmlns="http://www.w3.org/2000/svg" version="1.0" width="21" height="22"><path d="M4 22h7v-7l-7 7zM14 22h7v-7l-7 7z"/><path d="M6.094 19.906l-3.469-3.531A8.988 8.988 0 0 1 0 10c0-2.485.996-4.746 2.625-6.375L6.281 0l.688.687-3.625 3.657A7.974 7.974 0 0 0 1 10c0 2.21.896 4.209 2.344 5.656L6.78 19.22l-.687.687z"/><path d="M6.781 19.219l-3.437-3.563A7.974 7.974 0 0 1 1 10c0-2.21.896-4.209 2.344-5.656L6.969.687l1.437 1.438L4.75 5.75A5.992 5.992 0 0 0 3 10c0 1.657.664 3.164 1.75 4.25l3.469 3.531L6.78 19.22z" fill="#fff"/><path d="M8.219 17.781L4.75 14.25A5.992 5.992 0 0 1 3 10c0-1.657.664-3.164 1.75-4.25l3.656-3.625.688.687L5.469 6.47a4.978 4.978 0 0 0 0 7.062l3.437 3.563-.687.687zM16.094 19.906l-3.469-3.531A8.988 8.988 0 0 1 10 10c0-2.485.996-4.746 2.625-6.375L16.281 0l.688.687-3.625 3.657A7.974 7.974 0 0 0 11 10c0 2.21.896 4.209 2.344 5.656l3.437 3.563-.687.687z"/><path d="M16.781 19.219l-3.437-3.563A7.974 7.974 0 0 1 11 10c0-2.21.896-4.209 2.344-5.656L16.969.687l1.437 1.438L14.75 5.75A5.992 5.992 0 0 0 13 10c0 1.657.664 3.164 1.75 4.25l3.469 3.531-1.438 1.438z" fill="#fff"/><path d="M18.219 17.781L14.75 14.25A5.992 5.992 0 0 1 13 10c0-1.657.664-3.164 1.75-4.25l3.656-3.625.688.687-3.625 3.657a4.978 4.978 0 0 0 0 7.062l3.437 3.563-.687.687z"/></svg>