<svg xmlns="http://www.w3.org/2000/svg" version="1.0" width="30" height="51"><path d="M8 0L1 7l7 7V0zM7 2.406v9.188L2.437 7 7 2.406z"/><path d="M8 5v1h14a7 7 0 0 1 7 7v2a7 7 0 0 1-7 7H8a5 5 0 0 0-5 5v2a5 5 0 0 0 5 5h14a7 7 0 0 1 7 7v2a7 7 0 0 1-7 7H4v1h18a8 8 0 0 0 8-8v-2a8 8 0 0 0-8-8H8a4 4 0 0 1-4-4v-2a4 4 0 0 1 4-4h14a8 8 0 0 0 8-8v-2a8 8 0 0 0-8-8H8z"/><path d="M8 6v2h14a5 5 0 0 1 5 5v2a5 5 0 0 1-5 5H8a7 7 0 0 0-7 7v2a7 7 0 0 0 7 7h14a5 5 0 0 1 5 5v2a5 5 0 0 1-5 5H4v2h18a7 7 0 0 0 7-7v-2a7 7 0 0 0-7-7H8a5 5 0 0 1-5-5v-2a5 5 0 0 1 5-5h14a7 7 0 0 0 7-7v-2a7 7 0 0 0-7-7H8z" fill="#fff"/><path d="M8 8v1h14a4 4 0 0 1 4 4v2a4 4 0 0 1-4 4H8a8 8 0 0 0-8 8v2a8 8 0 0 0 8 8h14a4 4 0 0 1 4 4v2a4 4 0 0 1-4 4H4v1h18a5 5 0 0 0 5-5v-2a5 5 0 0 0-5-5H8a7 7 0 0 1-7-7v-2a7 7 0 0 1 7-7h14a5 5 0 0 0 5-5v-2a5 5 0 0 0-5-5H8z"/><path d="M7 2.406L2.437 7 7 11.594V2.406z" fill="#fff"/></svg>