<svg xmlns="http://www.w3.org/2000/svg" version="1.0" width="49" height="48"><path d="M0 38.9V29h9.9l-1.415 1.414h-7.07v7.071L0 38.9z"/><path d="M3.536 35.364l.707-.707 9.9 9.9a7 7 0 0 0 9.899 0l1.414-1.415a7 7 0 0 0 0-9.9l-9.9-9.899a5 5 0 0 1 0-7.07l1.415-1.415a5 5 0 0 1 7.07 0l9.9 9.9a7 7 0 0 0 9.9 0l1.414-1.415a7 7 0 0 0 0-9.9L32.527.717l.707-.707 12.728 12.728a8 8 0 0 1 0 11.313l-1.414 1.414a8 8 0 0 1-11.314 0l-9.9-9.899a4 4 0 0 0-5.656 0l-1.415 1.414a4 4 0 0 0 0 5.657l9.9 9.9a8 8 0 0 1 0 11.313l-1.414 1.414a8 8 0 0 1-11.314 0l-9.9-9.899z"/><path d="M4.243 34.657l1.414-1.414 9.9 9.9a5 5 0 0 0 7.07 0l1.415-1.415a5 5 0 0 0 0-7.071l-9.9-9.9a7 7 0 0 1 0-9.9l1.414-1.413a7 7 0 0 1 9.9 0l9.9 9.9a5 5 0 0 0 7.07 0l1.415-1.415a5 5 0 0 0 0-7.071L31.113 2.13 32.527.716l12.728 12.728a7 7 0 0 1 0 9.9l-1.414 1.413a7 7 0 0 1-9.9 0l-9.9-9.9a5 5 0 0 0-7.07 0l-1.415 1.415a5 5 0 0 0 0 7.071l9.9 9.9a7 7 0 0 1 0 9.9l-1.414 1.413a7 7 0 0 1-9.9 0l-9.9-9.9z" fill="#fff"/><path d="M5.657 33.243l.707-.707 9.9 9.899a4 4 0 0 0 5.656 0l1.415-1.414a4 4 0 0 0 0-5.657l-9.9-9.9a8 8 0 0 1 0-11.313l1.414-1.414a8 8 0 0 1 11.314 0l9.9 9.899a4 4 0 0 0 5.656 0l1.415-1.414a4 4 0 0 0 0-5.657L30.406 2.837l.707-.707L43.84 14.858a5 5 0 0 1 0 7.07l-1.415 1.415a5 5 0 0 1-7.07 0l-9.9-9.9a7 7 0 0 0-9.9 0l-1.414 1.415a7 7 0 0 0 0 9.9l9.9 9.899a5 5 0 0 1 0 7.07l-1.415 1.415a5 5 0 0 1-7.07 0l-9.9-9.9z"/><path d="M26.87 40.314a4 4 0 1 0-5.657 5.657 4 4 0 0 0 5.657-5.657zM18.385 12.03a4 4 0 1 0-5.657 5.656 4 4 0 0 0 5.657-5.657zM46.669 20.515a4 4 0 1 0-5.657 5.657 4 4 0 0 0 5.657-5.657z"/></svg>