<svg xmlns="http://www.w3.org/2000/svg" version="1.0" width="34" height="28"><path d="M1.523 2.594a6 6 0 0 1 8.486 0l6.364 6.364 7.778 7.779 9.192 9.192-1.414 1.414-6.762-6.762a3.99 3.99 0 0 1-1.016 1.812 4 4 0 1 1-5.657-5.656 3.99 3.99 0 0 1 1.812-1.017l-2.917-2.917a3.99 3.99 0 0 1-1.016 1.812 4 4 0 0 1-5.657-5.657 3.99 3.99 0 0 1 1.812-1.016L8.594 4.009a4 4 0 0 0-5.656 0 3 3 0 0 0 0 4.242l2.12 2.122-1.413 1.414-2.122-2.122a5 5 0 0 1 0-7.07zm10.607 7.779a2 2 0 1 0 2.828 2.828 2 2 0 0 0-2.828-2.828zm7.778 7.778a2 2 0 1 0 2.829 2.828 2 2 0 0 0-2.829-2.828z"/></svg>