<svg xmlns="http://www.w3.org/2000/svg" version="1.0" width="16" height="34"><path d="M8 3a6 6 0 1 0 0 12A6 6 0 0 0 8 3zm0 2a4 4 0 1 1 0 8 4 4 0 0 1 0-8z"/><path d="M8 5a4 4 0 1 0 0 8 4 4 0 0 0 0-8zm0 2a2 2 0 1 1 0 4 2 2 0 0 1 0-4z" fill="#fff"/><path d="M8 7a2 2 0 1 0 0 4 2 2 0 0 0 0-4zM16 0H0v2h16V0zM16 16H0v2h16v-2zM8 19a6 6 0 1 0 0 12 6 6 0 0 0 0-12zm0 2a4 4 0 1 1 0 8 4 4 0 0 1 0-8z"/><path d="M8 21a4 4 0 1 0 0 8 4 4 0 0 0 0-8zm0 2a2 2 0 1 1 0 4 2 2 0 0 1 0-4z" fill="#fff"/><path d="M8 23a2 2 0 1 0 0 4 2 2 0 0 0 0-4zM16 32H0v2h16v-2z"/></svg>