<svg xmlns="http://www.w3.org/2000/svg" version="1.0" width="43" height="35"><path d="M2.18.565l8.309 8.308a4.443 4.443 0 0 1 1.237-2.298 4.5 4.5 0 0 1 6.364 6.364 4.443 4.443 0 0 1-2.298 1.238l3.182 3.182a4.443 4.443 0 0 1 1.237-2.298 4.5 4.5 0 0 1 6.364 6.364 4.443 4.443 0 0 1-2.298 1.237l8.309 8.309a4 4 0 0 0 5.657 0c3.124-3.125 3.44-7.873.707-10.607l1.414-1.414c3.515 3.514 3.198 9.53-.707 13.435a6 6 0 0 1-8.485 0L.766 1.979 2.18.565zM13.14 7.99a2.5 2.5 0 1 0 3.536 3.535A2.5 2.5 0 0 0 13.14 7.99zm8.486 8.485a2.5 2.5 0 1 0 3.535 3.535 2.5 2.5 0 0 0-3.535-3.535z"/></svg>