<svg xmlns="http://www.w3.org/2000/svg" version="1.0" width="27" height="21"><path d="M0 7l5-5 5 5H8.5L5 3.5 1.5 7H0zM3 12a9 9 0 0 0 9 9h6v-1h-6a8 8 0 0 1-8-8V7H3v5z"/><path d="M4 12a8 8 0 0 0 8 8h6v-2h-6a6 6 0 0 1-6-6V7H4v5z" fill="#fff"/><path d="M6 12a6 6 0 0 0 6 6h6v-1h-6a5 5 0 0 1-5-5V7H6v5zM22 18v-1.5l3.5-3.5L22 9.5V8l5 5-5 5z"/><path d="M19 15a9 9 0 0 1-9-9V0h1v6a8 8 0 0 0 8 8h3v1h-3z"/><path d="M19 14a8 8 0 0 1-8-8V0h2v6a6 6 0 0 0 6 6h3v2h-3z" fill="#fff"/><path d="M19 12a6 6 0 0 1-6-6V0h1v6a5 5 0 0 0 5 5h3v1h-3z"/></svg>