<svg xmlns="http://www.w3.org/2000/svg" version="1.0" width="39" height="31"><path d="M.1 16L10 6.1V16H.1z"/><path d="M2.222 2.565a5 5 0 0 0 0 7.071l2.121 2.121 1.414-1.414-2.121-2.121a3 3 0 0 1 0-4.243l.707-.707a4 4 0 0 1 5.657 0l4.64 4.64a3.99 3.99 0 0 0-1.812 1.017 4 4 0 0 0 5.657 5.657 3.99 3.99 0 0 0 1.017-1.812l2.21 2.21A3.99 3.99 0 0 0 19.898 16a4 4 0 1 0 5.657 5.657 4 4 0 0 0 1.017-1.768c2.636 3.127 3.933 10.96 3.933 10.96l8.485-8.485s-8.465-1.395-11.313-4.243L25.556 16l-7.07-7.071-7.072-7.071a6 6 0 0 0-8.485 0l-.707.707zm12.02 7.778a2 2 0 1 1 2.83 2.829 2 2 0 0 1-2.83-2.829zm7.072 7.071a2 2 0 1 1 2.828 2.829 2 2 0 0 1-2.828-2.829z"/></svg>