<svg xmlns="http://www.w3.org/2000/svg" version="1.0" width="25" height="10"><path d="M5 10H0V9h4V5h1v5z"/><path d="M0 5c0 1.38.564 2.626 1.469 3.531l.687-.687A4.01 4.01 0 0 1 1 5a4 4 0 1 1 8 0 3.975 3.975 0 0 1-2.219 3.563l.438.874C8.853 8.616 10 6.954 10 5A5 5 0 0 0 0 5z"/><path d="M2 5c0 .828.332 1.582.875 2.125l.719-.719A1.982 1.982 0 0 1 3 5a2 2 0 1 1 2.906 1.781l.438.875C7.319 7.161 8 6.17 8 5a3 3 0 0 0-6 0zM20 10h-5V9h4V5h1v5z"/><path d="M15 5c0 1.38.564 2.626 1.469 3.531l.687-.687A4.01 4.01 0 0 1 16 5a4 4 0 1 1 8 0 3.975 3.975 0 0 1-2.219 3.563l.438.874C23.853 8.616 25 6.954 25 5a5 5 0 1 0-10 0z"/><path d="M17 5c0 .828.332 1.582.875 2.125l.719-.719A1.982 1.982 0 0 1 18 5a2 2 0 1 1 2.906 1.781l.438.875C22.319 7.161 23 6.17 23 5a3 3 0 0 0-6 0z"/></svg>