<svg xmlns="http://www.w3.org/2000/svg" version="1.0" width="27" height="48"><path d="M13.5 0A8.5 8.5 0 0 1 22 8.5a8.501 8.501 0 0 1-5 7.75V19h3a7 7 0 0 1 7 7v22h-2V26a5 5 0 0 0-5-5H7a5 5 0 0 0-5 5v22H0V26a7 7 0 0 1 7-7h3v-2.75A8.501 8.501 0 0 1 5 8.5 8.5 8.5 0 0 1 13.5 0zM21 24v3.219A5.394 5.394 0 0 0 19.5 27c-.525 0-1.02.082-1.5.219V24h3zM9 24v17H6V24h3zm12 13.781V41h-3v-3.219c.48.137.975.219 1.5.219.524 0 1.02-.08 1.5-.219zM23 44v4H4v-4h19z"/><path d="M19.5 28a4.5 4.5 0 1 0 0 9 4.5 4.5 0 0 0 0-9z"/></svg>