<svg xmlns="http://www.w3.org/2000/svg" version="1.0" width="27" height="48"><path d="M13.5 0A8.5 8.5 0 0 1 22 8.5a8.501 8.501 0 0 1-5 7.75V19h3a7 7 0 0 1 7 7v22h-2V26a5 5 0 0 0-5-5H7a5 5 0 0 0-5 5v22H0V26a7 7 0 0 1 7-7h3v-2.75A8.501 8.501 0 0 1 5 8.5 8.5 8.5 0 0 1 13.5 0zM21 25v9.219A5.394 5.394 0 0 0 19.5 34c-.525 0-1.02.082-1.5.219V25h3zM9 25v16H6V25h3zm14 19v4H4v-4h12.344c.895.631 1.977 1 3.156 1 1.178 0 2.26-.367 3.156-1H23z"/><path d="M19.5 35a4.5 4.5 0 1 0 0 9 4.5 4.5 0 0 0 0-9zm0 1.5a3 3 0 1 1 0 6 3 3 0 0 1 0-6z"/><path d="M19.5 36.5a3 3 0 1 0 0 6 3 3 0 0 0 0-6z" fill="#fff"/></svg>